<svg xmlns="http://www.w3.org/2000/svg" viewBox="0 0 512 512" width="512" height="512">
  <defs></defs>
  <rect x="0" y="0" width="512" height="512" class="fill-bg" fill="#efb78e"/>

  <g id="fills">
    <rect x="0" y="392" width="512" height="120" class="fill-ground" fill="#68392c"/>
    <rect x="140" y="220" width="190" height="172" class="fill-wall" fill="#c5664b"/>
    <polygon points="120,222 235,130 350,222" class="fill-roof" fill="#f3843d"/>
    <rect x="290" y="150" width="28" height="60" class="fill-roof" fill="#f3843d"/>
    <rect x="218" y="310" width="34" height="82" class="fill-door" fill="#964f3b"/>
    <rect x="162" y="250" width="44" height="44" class="fill-window" fill="#9c4d36"/>
    <rect x="288" y="250" width="44" height="44" class="fill-window" fill="#9c4d36"/>
    <rect x="430" y="320" width="16" height="72" class="fill-door" fill="#964f3b"/>
    <ellipse cx="438" cy="242" rx="46" ry="46" class="fill-ground" fill="#68392c"/>
    <polygon points="226,392 244,392 270,470 200,470" class="fill-door" fill="#964f3b"/>
  </g>

  <g id="strokes" class="brush-custom" stroke="#45251c"
     stroke-width="7" stroke-linecap="square"
     stroke-linejoin="round" fill="none">
    <path class="stroke stroke-walls baked-outline" data-brush="tapered" fill="#45251c" stroke="none" d="M 139.5 263.0 L 139.5 269.2 L 139.4 275.3 L 139.2 281.5 L 139.1 287.7 L 138.9 293.9 L 138.8 300.1 L 138.6 306.3 L 138.5 312.4 L 138.4 318.4 L 138.3 324.5 L 138.2 330.6 L 138.1 336.7 L 138.0 342.8 L 138.1 349.8 L 143.3 355.0 L 147.9 359.5 L 152.5 363.9 L 157.1 368.4 L 161.7 372.9 L 166.3 377.4 L 170.9 381.9 L 175.6 386.3 L 180.4 390.6 L 186.3 395.7 L 194.3 395.8 L 201.1 395.8 L 207.9 395.7 L 214.7 395.6 L 221.5 395.5 L 228.4 395.4 L 235.1 395.4 L 241.9 395.4 L 248.7 395.4 L 255.5 395.4 L 262.3 395.4 L 269.0 395.4 L 275.8 395.4 L 283.8 395.2 L 289.7 390.1 L 294.4 385.8 L 299.1 381.5 L 303.9 377.2 L 308.6 372.9 L 313.3 368.6 L 318.0 364.2 L 322.8 359.9 L 327.5 355.6 L 333.0 350.1 L 333.1 342.6 L 332.9 336.5 L 332.8 330.4 L 332.6 324.2 L 332.4 318.1 L 332.3 312.0 L 332.1 305.9 L 332.0 299.9 L 331.9 293.9 L 331.8 287.9 L 331.7 281.9 L 331.7 275.9 L 331.6 269.8 L 331.5 263.8 L 331.3 257.5 L 331.0 251.3 L 330.8 245.0 L 330.6 238.8 L 330.4 232.5 L 330.2 226.3 L 330.2 220.0 L 329.8 220.0 L 329.8 226.3 L 329.8 232.5 L 329.6 238.8 L 329.5 245.0 L 329.4 251.3 L 329.3 257.6 L 329.1 263.8 L 328.9 269.8 L 328.7 275.8 L 328.4 281.8 L 328.2 287.8 L 328.0 293.8 L 327.8 299.9 L 327.5 305.9 L 327.4 312.0 L 327.2 318.1 L 327.1 324.2 L 326.9 330.4 L 326.7 336.5 L 326.6 342.6 L 326.7 347.3 L 322.8 350.4 L 318.0 354.8 L 313.3 359.1 L 308.6 363.4 L 303.9 367.7 L 299.1 372.0 L 294.4 376.3 L 289.7 380.7 L 285.0 385.0 L 281.4 388.6 L 275.8 388.4 L 269.0 388.4 L 262.3 388.4 L 255.5 388.4 L 248.7 388.4 L 241.9 388.4 L 235.1 388.4 L 228.3 388.4 L 221.5 388.5 L 214.7 388.6 L 207.9 388.7 L 201.0 388.8 L 194.2 388.8 L 188.7 389.1 L 185.1 385.5 L 180.4 381.1 L 175.7 376.8 L 170.8 372.5 L 166.0 368.3 L 161.1 364.1 L 156.3 359.8 L 151.4 355.6 L 146.6 351.4 L 142.3 347.9 L 142.3 342.7 L 142.1 336.6 L 141.8 330.6 L 141.6 324.5 L 141.4 318.4 L 141.2 312.3 L 140.9 306.3 L 140.8 300.1 L 140.6 293.9 L 140.4 287.7 L 140.2 281.5 L 140.0 275.3 L 139.9 269.2 L 139.9 263.0 Z"/>
    <path class="stroke stroke-roof baked-outline" data-brush="tapered" fill="#45251c" stroke="none" d="M 148.5 199.0 L 154.2 194.7 L 160.0 190.6 L 165.9 186.5 L 171.7 182.3 L 177.5 178.2 L 182.8 174.4 L 188.0 170.6 L 193.2 166.8 L 198.4 163.0 L 203.7 159.3 L 207.8 156.0 L 213.0 156.2 L 219.3 156.2 L 225.7 156.1 L 232.0 156.1 L 238.4 156.1 L 244.7 156.1 L 251.0 156.1 L 257.4 156.1 L 262.6 155.9 L 266.4 159.1 L 271.3 162.9 L 276.2 166.7 L 281.1 170.5 L 285.9 174.2 L 290.8 178.0 L 295.7 181.7 L 300.6 185.3 L 305.6 189.0 L 310.6 192.7 L 315.5 196.3 L 320.5 200.0 L 325.4 203.7 L 330.3 207.3 L 335.2 211.0 L 340.2 214.7 L 345.1 218.3 L 349.9 222.2 L 350.1 221.8 L 345.5 217.9 L 340.9 213.8 L 336.4 209.6 L 331.8 205.5 L 327.3 201.4 L 322.7 197.3 L 318.2 193.1 L 313.6 189.0 L 309.0 184.9 L 304.4 180.8 L 299.8 176.6 L 295.1 172.5 L 290.2 168.7 L 285.4 164.9 L 280.5 161.1 L 275.6 157.4 L 270.7 153.6 L 264.8 149.3 L 257.4 149.1 L 251.0 149.1 L 244.7 149.1 L 238.3 149.1 L 232.0 149.1 L 225.7 149.1 L 219.3 149.2 L 213.0 149.2 L 205.5 149.4 L 199.6 154.1 L 194.7 158.4 L 189.9 162.7 L 185.1 166.9 L 180.2 171.2 L 175.4 175.5 L 170.0 180.2 L 164.6 184.8 L 159.2 189.5 L 153.8 194.2 L 148.3 198.7 Z"/>
    <path class="stroke stroke-chimney baked-outline" data-brush="tapered" fill="#45251c" stroke="none" d="M 289.4 165.1 L 289.3 172.4 L 288.9 179.7 L 288.2 187.4 L 287.5 195.8 L 290.0 203.7 L 293.7 212.0 L 300.5 213.0 L 304.5 213.1 L 307.4 213.5 L 313.6 212.9 L 317.9 204.4 L 321.9 195.9 L 321.5 187.2 L 320.3 179.7 L 319.9 172.3 L 319.6 164.6 L 318.8 157.3 L 318.2 150.0 L 317.8 150.0 L 317.4 157.3 L 316.8 164.6 L 315.7 172.0 L 314.6 179.7 L 314.5 187.7 L 315.1 194.5 L 311.6 201.3 L 308.5 208.1 L 308.4 206.6 L 305.0 206.1 L 300.5 206.0 L 298.7 207.0 L 296.5 201.0 L 293.1 194.7 L 292.4 187.4 L 291.7 179.6 L 290.7 172.3 L 289.8 165.1 Z"/>
    <path class="stroke stroke-door baked-outline" data-brush="tapered" fill="#45251c" stroke="none" d="M 217.8 330.4 L 217.4 337.2 L 216.9 343.9 L 216.3 350.7 L 215.9 357.8 L 215.4 364.8 L 215.0 372.6 L 218.0 380.1 L 221.2 386.9 L 225.1 394.6 L 231.1 395.2 L 233.9 394.9 L 238.0 395.2 L 244.8 394.6 L 248.9 386.8 L 252.2 380.0 L 255.7 372.6 L 255.8 364.8 L 255.8 357.8 L 255.3 350.9 L 255.0 344.4 L 254.8 337.8 L 254.5 331.1 L 253.7 324.0 L 252.8 317.0 L 252.2 310.0 L 251.8 310.0 L 251.8 317.1 L 251.7 324.1 L 251.5 331.2 L 250.8 337.6 L 250.1 344.2 L 249.4 350.8 L 248.9 357.8 L 248.8 364.8 L 248.9 371.0 L 245.9 377.0 L 242.6 383.7 L 240.2 389.3 L 238.4 388.2 L 233.8 387.9 L 230.3 388.3 L 230.0 389.6 L 227.5 383.8 L 224.3 377.1 L 220.8 371.2 L 220.3 364.8 L 219.8 357.7 L 219.2 350.7 L 218.8 343.9 L 218.4 337.2 L 218.2 330.4 Z"/>
    <path class="stroke stroke-window_l baked-outline" data-brush="tapered" fill="#45251c" stroke="none" d="M 161.3 261.0 L 161.5 266.5 L 161.4 272.1 L 161.0 277.6 L 160.8 284.0 L 165.8 290.3 L 171.3 296.6 L 178.2 297.5 L 183.8 297.6 L 189.4 297.6 L 196.5 297.1 L 202.9 290.9 L 208.9 284.5 L 210.0 278.0 L 210.7 272.3 L 210.2 266.2 L 209.3 259.2 L 203.1 252.9 L 196.6 247.1 L 189.6 247.2 L 183.9 247.6 L 179.0 248.2 L 174.0 248.7 L 168.0 249.4 L 162.0 249.8 L 162.0 250.2 L 168.0 250.3 L 174.1 250.6 L 179.0 250.9 L 184.0 251.1 L 189.6 251.6 L 194.1 251.8 L 198.4 257.4 L 203.1 262.5 L 203.2 266.9 L 203.7 272.2 L 203.1 277.1 L 202.8 281.1 L 197.9 286.0 L 193.3 290.9 L 189.3 290.6 L 183.8 290.6 L 178.3 290.6 L 174.0 291.3 L 169.2 287.0 L 164.0 282.5 L 163.7 277.6 L 163.2 272.0 L 162.3 266.5 L 161.7 260.9 Z"/>
    <path class="stroke stroke-window_r baked-outline" data-brush="tapered" fill="#45251c" stroke="none" d="M 288.0 261.0 L 287.6 267.1 L 287.0 273.2 L 286.5 278.0 L 286.2 283.7 L 292.3 290.1 L 298.7 296.5 L 304.5 298.0 L 309.7 298.8 L 315.9 298.2 L 323.2 297.2 L 328.9 290.6 L 334.2 284.1 L 335.0 277.2 L 335.6 271.2 L 335.3 266.0 L 334.6 259.8 L 328.9 253.6 L 322.6 247.8 L 315.6 248.0 L 310.0 248.5 L 304.3 249.0 L 298.7 249.5 L 293.4 249.8 L 288.0 249.8 L 288.0 250.2 L 293.3 250.6 L 298.7 251.2 L 304.3 251.7 L 310.0 252.1 L 315.7 252.5 L 320.1 252.6 L 324.0 258.0 L 328.4 263.0 L 328.3 266.5 L 328.6 271.1 L 328.1 276.5 L 327.8 281.1 L 323.5 286.2 L 319.6 291.2 L 315.3 291.3 L 309.9 291.8 L 305.5 291.1 L 301.7 291.1 L 295.6 286.5 L 289.2 281.9 L 289.2 278.1 L 289.0 273.2 L 288.6 267.1 L 288.4 261.0 Z"/>
    <path class="stroke stroke-tree_trunk baked-outline" data-brush="tapered" fill="#45251c" stroke="none" d="M 430.1 338.5 L 429.5 344.8 L 428.7 351.0 L 427.9 357.3 L 427.7 365.7 L 427.4 374.3 L 429.0 383.3 L 431.1 392.6 L 435.5 395.0 L 437.6 395.3 L 439.8 395.3 L 444.8 393.5 L 447.8 384.3 L 450.8 375.3 L 450.5 368.1 L 450.1 361.7 L 449.4 355.3 L 448.2 346.9 L 447.1 338.4 L 446.7 332.3 L 446.4 326.2 L 446.2 320.0 L 445.8 320.0 L 445.3 326.1 L 444.6 332.3 L 443.8 338.5 L 443.5 347.1 L 443.1 355.6 L 443.1 362.1 L 443.5 368.5 L 443.9 374.2 L 441.2 382.2 L 438.7 390.1 L 439.7 388.3 L 438.1 388.3 L 436.7 388.1 L 437.6 389.9 L 435.8 381.8 L 433.6 373.4 L 432.4 365.4 L 431.2 357.3 L 430.9 351.1 L 430.6 344.8 L 430.5 338.6 Z"/>
    <path class="stroke stroke-ground baked-outline" data-brush="tapered" fill="#45251c" stroke="none" d="M 127.9 392.1 L 134.0 392.2 L 140.1 392.4 L 146.2 392.6 L 152.3 392.8 L 158.4 393.1 L 164.4 393.3 L 170.5 393.5 L 176.6 393.7 L 182.7 394.0 L 188.8 394.2 L 194.9 394.4 L 201.0 394.7 L 207.0 394.9 L 213.1 395.1 L 219.2 395.3 L 225.3 395.6 L 231.4 395.8 L 237.5 396.0 L 243.6 396.2 L 249.6 396.3 L 255.8 396.3 L 261.9 396.3 L 268.0 396.2 L 274.2 396.1 L 280.3 396.1 L 286.4 396.0 L 292.5 395.9 L 298.6 395.8 L 304.8 395.8 L 310.9 395.7 L 317.0 395.6 L 323.1 395.6 L 329.2 395.5 L 335.4 395.4 L 341.5 395.3 L 347.6 395.3 L 353.7 395.2 L 359.8 395.1 L 366.0 395.1 L 372.1 395.0 L 378.2 394.9 L 384.3 394.8 L 390.3 394.9 L 396.4 394.9 L 402.5 394.8 L 408.6 394.6 L 414.7 394.5 L 420.8 394.3 L 426.8 394.1 L 432.9 394.0 L 439.0 393.8 L 445.1 393.7 L 451.2 393.5 L 457.3 393.4 L 463.3 393.2 L 469.4 393.1 L 475.5 392.9 L 481.6 392.8 L 487.7 392.6 L 493.8 392.5 L 499.8 392.3 L 505.9 392.2 L 512.0 392.2 L 512.0 391.8 L 505.9 391.8 L 499.8 391.6 L 493.8 391.4 L 487.7 391.1 L 481.6 390.9 L 475.5 390.7 L 469.4 390.5 L 463.4 390.3 L 457.3 390.1 L 451.2 389.8 L 445.1 389.6 L 439.0 389.4 L 433.0 389.2 L 426.9 389.0 L 420.8 388.8 L 414.7 388.5 L 408.6 388.3 L 402.5 388.1 L 396.5 387.9 L 390.4 387.9 L 384.3 387.8 L 378.1 387.9 L 372.0 388.0 L 365.9 388.1 L 359.8 388.1 L 353.6 388.2 L 347.5 388.3 L 341.4 388.3 L 335.3 388.4 L 329.2 388.5 L 323.0 388.6 L 316.9 388.6 L 310.8 388.7 L 304.7 388.8 L 298.6 388.8 L 292.4 388.9 L 286.3 389.0 L 280.2 389.1 L 274.1 389.1 L 268.0 389.2 L 261.8 389.3 L 255.7 389.3 L 249.7 389.3 L 243.6 389.2 L 237.5 389.4 L 231.4 389.5 L 225.3 389.7 L 219.3 389.8 L 213.2 389.9 L 207.1 390.1 L 201.0 390.2 L 194.9 390.4 L 188.8 390.5 L 182.7 390.6 L 176.6 390.8 L 170.5 390.9 L 164.5 391.1 L 158.4 391.2 L 152.3 391.3 L 146.2 391.5 L 140.1 391.6 L 134.0 391.8 L 127.9 391.7 Z"/>
  </g>

</svg>